<svg width="513.85625px" height="141.2px" xmlns="http://www.w3.org/2000/svg" viewBox="-6.928125000000023 4.400000000000006 513.85625 141.2" style="background: rgba(0, 0, 0, 0);" preserveAspectRatio="xMidYMid"><defs><linearGradient id="editing-outline-gradient" x1="-0.41354545764260087" x2="1.4135454576426008" y1="0.09326335692419985" y2="0.9067366430758002"><stop offset="0" stop-color="#ee4208"></stop><stop offset="1" stop-color="#4139ff"></stop></linearGradient><filter id="editing-outline" x="-100%" y="-100%" width="300%" height="300%"><feMorphology in="SourceGraphic" operator="dilate" radius="1" result="outline"></feMorphology><feComposite operator="out" in="outline" in2="SourceAlpha"></feComposite></filter></defs><g filter="url(#editing-outline)"><g transform="translate(67.66499328613281, 97.88000106811523)"><path d="M40-44.67L40 0L34.18 0L10.75-35.52L10.75 0L4.93 0L4.93-44.67L10.75-44.67L34.18-9.22L34.18-44.67L40-44.67ZM49.79-44.61L55.62-44.61L55.62-16.45L55.62-16.45Q55.62-10.56 58.56-7.65L58.56-7.65L58.56-7.65Q61.50-4.74 66.62-4.74L66.62-4.74L66.62-4.74Q71.74-4.74 74.66-7.65L74.66-7.65L74.66-7.65Q77.57-10.56 77.57-16.45L77.57-16.45L77.57-44.61L83.39-44.61L83.39-16.45L83.39-16.45Q83.39-10.88 81.15-7.07L81.15-7.07L81.15-7.07Q78.91-3.26 75.10-1.41L75.10-1.41L75.10-1.41Q71.30 0.45 66.56 0.45L66.56 0.45L66.56 0.45Q61.82 0.45 58.02-1.41L58.02-1.41L58.02-1.41Q54.21-3.26 52.00-7.07L52.00-7.07L52.00-7.07Q49.79-10.88 49.79-16.45L49.79-16.45L49.79-44.61ZM107.26 0.45L107.26 0.45Q102.85 0.45 99.36-1.12L99.36-1.12L99.36-1.12Q95.87-2.69 93.89-5.47L93.89-5.47L93.89-5.47Q91.90-8.26 91.84-11.90L91.84-11.90L98.05-11.90L98.05-11.90Q98.37-8.70 100.67-6.50L100.67-6.50L100.67-6.50Q102.98-4.29 107.26-4.29L107.26-4.29L107.26-4.29Q111.36-4.29 113.79-6.43L113.79-6.43L113.79-6.43Q116.22-8.58 116.22-11.90L116.22-11.90L116.22-11.90Q116.22-14.46 114.82-16.06L114.82-16.06L114.82-16.06Q113.41-17.66 111.30-18.50L111.30-18.50L111.30-18.50Q109.18-19.33 105.60-20.29L105.60-20.29L105.60-20.29Q101.18-21.44 98.53-22.59L98.53-22.59L98.53-22.59Q95.87-23.74 93.98-26.21L93.98-26.21L93.98-26.21Q92.10-28.67 92.10-32.83L92.10-32.83L92.10-32.83Q92.10-36.48 93.95-39.30L93.95-39.30L93.95-39.30Q95.81-42.11 99.17-43.65L99.17-43.65L99.17-43.65Q102.53-45.18 106.88-45.18L106.88-45.18L106.88-45.18Q113.15-45.18 117.15-42.05L117.15-42.05L117.15-42.05Q121.15-38.91 121.66-33.73L121.66-33.73L115.26-33.73L115.26-33.73Q114.94-36.48 112.61-38.43L112.61-38.43L112.61-38.43Q110.27-40.38 106.30-40.38L106.30-40.38L106.30-40.38Q102.66-40.38 100.35-38.46L100.35-38.46L100.35-38.46Q98.05-36.54 98.05-33.02L98.05-33.02L98.05-33.02Q98.05-30.59 99.42-29.06L99.42-29.06L99.42-29.06Q100.80-27.52 102.82-26.72L102.82-26.72L102.82-26.72Q104.83-25.92 108.48-24.90L108.48-24.90L108.48-24.90Q112.90-23.68 115.58-22.50L115.58-22.50L115.58-22.50Q118.27-21.31 120.19-18.85L120.19-18.85L120.19-18.85Q122.11-16.38 122.11-12.16L122.11-12.16L122.11-12.16Q122.11-8.90 120.38-6.02L120.38-6.02L120.38-6.02Q118.66-3.14 115.26-1.34L115.26-1.34L115.26-1.34Q111.87 0.45 107.26 0.45L107.26 0.45ZM130.69-44.61L155.90-44.61L155.90-40.06L136.51-40.06L136.51-24.77L152.26-24.77L152.26-20.22L136.51-20.22L136.51 0L130.69 0L130.69-44.61ZM178.24 0.58L178.24 0.58Q173.31 0.58 169.31-1.66L169.31-1.66L169.31-1.66Q165.31-3.90 163.04-8.03L163.04-8.03L163.04-8.03Q160.77-12.16 160.77-17.60L160.77-17.60L160.77-17.60Q160.77-22.98 163.10-27.10L163.10-27.10L163.10-27.10Q165.44-31.23 169.47-33.44L169.47-33.44L169.47-33.44Q173.50-35.65 178.50-35.65L178.50-35.65L178.50-35.65Q183.49-35.65 187.52-33.44L187.52-33.44L187.52-33.44Q191.55-31.23 193.89-27.14L193.89-27.14L193.89-27.14Q196.22-23.04 196.22-17.60L196.22-17.60L196.22-17.60Q196.22-12.16 193.82-8.03L193.82-8.03L193.82-8.03Q191.42-3.90 187.33-1.66L187.33-1.66L187.33-1.66Q183.23 0.58 178.24 0.58L178.24 0.58ZM178.24-4.35L178.24-4.35Q181.38-4.35 184.13-5.86L184.13-5.86L184.13-5.86Q186.88-7.36 188.58-10.37L188.58-10.37L188.58-10.37Q190.27-13.38 190.27-17.60L190.27-17.60L190.27-17.60Q190.27-21.82 188.61-24.80L188.61-24.80L188.61-24.80Q186.94-27.78 184.26-29.25L184.26-29.25L184.26-29.25Q181.57-30.72 178.43-30.72L178.43-30.72L178.43-30.72Q175.23-30.72 172.58-29.25L172.58-29.25L172.58-29.25Q169.92-27.78 168.32-24.80L168.32-24.80L168.32-24.80Q166.72-21.82 166.72-17.60L166.72-17.60L166.72-17.60Q166.72-13.31 168.29-10.34L168.29-10.34L168.29-10.34Q169.86-7.36 172.48-5.86L172.48-5.86L172.48-5.86Q175.10-4.35 178.24-4.35L178.24-4.35ZM209.73-28.42L209.73-28.42Q211.26-31.87 214.11-33.79L214.11-33.79L214.11-33.79Q216.96-35.71 221.06-35.71L221.06-35.71L221.06-29.70L219.52-29.70L219.52-29.70Q209.73-29.70 209.73-19.07L209.73-19.07L209.73 0L203.90 0L203.90-35.07L209.73-35.07L209.73-28.42ZM253.06-35.07L258.88-35.07L258.88 0L253.06 0L253.06-5.18L253.06-5.18Q251.39-2.50 248.42-0.99L248.42-0.99L248.42-0.99Q245.44 0.51 241.86 0.51L241.86 0.51L241.86 0.51Q237.76 0.51 234.50-1.18L234.50-1.18L234.50-1.18Q231.23-2.88 229.34-6.27L229.34-6.27L229.34-6.27Q227.46-9.66 227.46-14.53L227.46-14.53L227.46-35.07L233.22-35.07L233.22-15.30L233.22-15.30Q233.22-10.11 235.84-7.33L235.84-7.33L235.84-7.33Q238.46-4.54 243.01-4.54L243.01-4.54L243.01-4.54Q247.68-4.54 250.37-7.42L250.37-7.42L250.37-7.42Q253.06-10.30 253.06-15.81L253.06-15.81L253.06-35.07ZM310.91-35.71L310.91-35.71Q315.01-35.71 318.21-34.02L318.21-34.02L318.21-34.02Q321.41-32.32 323.26-28.93L323.26-28.93L323.26-28.93Q325.12-25.54 325.12-20.67L325.12-20.67L325.12 0L319.36 0L319.36-19.84L319.36-19.84Q319.36-25.09 316.77-27.87L316.77-27.87L316.77-27.87Q314.18-30.66 309.76-30.66L309.76-30.66L309.76-30.66Q305.22-30.66 302.53-27.74L302.53-27.74L302.53-27.74Q299.84-24.83 299.84-19.33L299.84-19.33L299.84 0L294.08 0L294.08-19.84L294.08-19.84Q294.08-25.09 291.49-27.87L291.49-27.87L291.49-27.87Q288.90-30.66 284.48-30.66L284.48-30.66L284.48-30.66Q279.94-30.66 277.25-27.74L277.25-27.74L277.25-27.74Q274.56-24.83 274.56-19.33L274.56-19.33L274.56 0L268.74 0L268.74-35.07L274.56-35.07L274.56-30.02L274.56-30.02Q276.29-32.77 279.20-34.24L279.20-34.24L279.20-34.24Q282.11-35.71 285.63-35.71L285.63-35.71L285.63-35.71Q290.05-35.71 293.44-33.73L293.44-33.73L293.44-33.73Q296.83-31.74 298.50-27.90L298.50-27.90L298.50-27.90Q299.97-31.62 303.36-33.66L303.36-33.66L303.36-33.66Q306.75-35.71 310.91-35.71L310.91-35.71ZM347.01 0.58L347.01 0.58Q342.98 0.58 339.81-0.80L339.81-0.80L339.81-0.80Q336.64-2.18 334.78-4.64L334.78-4.64L334.78-4.64Q332.93-7.10 332.74-10.30L332.74-10.30L338.75-10.30L338.75-10.30Q339.01-7.55 341.22-5.82L341.22-5.82L341.22-5.82Q343.42-4.10 347.01-4.10L347.01-4.10L347.01-4.10Q350.40-4.10 352.29-5.60L352.29-5.60L352.29-5.60Q354.18-7.10 354.18-9.54L354.18-9.54L354.18-9.54Q354.18-11.84 352.13-12.96L352.13-12.96L352.13-12.96Q350.08-14.08 345.79-15.17L345.79-15.17L345.79-15.17Q341.89-16.19 339.46-17.22L339.46-17.22L339.46-17.22Q337.02-18.24 335.30-20.26L335.30-20.26L335.30-20.26Q333.57-22.27 333.57-25.60L333.57-25.60L333.57-25.60Q333.57-28.35 335.10-30.66L335.10-30.66L335.10-30.66Q336.64-32.96 339.55-34.30L339.55-34.30L339.55-34.30Q342.46-35.65 346.30-35.65L346.30-35.65L346.30-35.65Q352.13-35.65 355.71-32.70L355.71-32.70L355.71-32.70Q359.30-29.76 359.55-24.64L359.55-24.64L353.73-24.64L353.73-24.64Q353.54-27.52 351.52-29.25L351.52-29.25L351.52-29.25Q349.50-30.98 346.11-30.98L346.11-30.98L346.11-30.98Q342.91-30.98 341.09-29.57L341.09-29.57L341.09-29.57Q339.26-28.16 339.26-25.86L339.26-25.86L339.26-25.86Q339.26-24.06 340.42-22.94L340.42-22.94L340.42-22.94Q341.57-21.82 343.23-21.22L343.23-21.22L343.23-21.22Q344.90-20.61 347.97-19.71L347.97-19.71L347.97-19.71Q351.81-18.69 354.11-17.70L354.11-17.70L354.11-17.70Q356.42-16.70 358.08-14.78L358.08-14.78L358.08-14.78Q359.74-12.86 359.74-9.66L359.74-9.66L359.74-9.66Q359.74-6.72 358.18-4.42L358.18-4.42L358.18-4.42Q356.61-2.11 353.73-0.77L353.73-0.77L353.73-0.77Q350.85 0.58 347.01 0.58L347.01 0.58Z" fill="url(#editing-outline-gradient)"></path></g></g><style>text {
  font-size: 64px;
  font-family: Arial Black;
  dominant-baseline: central;
  text-anchor: middle;
}</style></svg>